<svg width="35" height="30" viewBox="0 0 35 30" fill="none" xmlns="http://www.w3.org/2000/svg">
<path d="M30.748 1.65648C27.3879 -0.579108 23.6079 -0.371147 20.5978 1.2059L17.5003 10.4082H20.4053C21.5778 10.4082 22.4179 11.5347 22.0853 12.6438L18.9003 23.1632C18.7428 23.6658 17.9903 23.5098 18.0428 22.9899L19.2503 12.1412H16.3278C15.1728 12.1412 14.3327 11.0321 14.6477 9.9403L16.7128 2.8176C13.4752 -0.180515 8.24265 -1.16833 3.97259 1.81245C1.43506 3.59746 3.69819e-05 6.42227 3.69819e-05 9.52437C-0.0174633 16.1272 6.17762 21.1529 15.1553 29.1075C16.4853 30.2859 18.5153 30.3032 19.8628 29.1248C28.5779 21.4648 35.3855 15.9885 34.983 8.98714C34.8255 5.98902 33.2505 3.33751 30.748 1.65648Z" fill="#DE7279"/>
</svg>
